<?xml version="1.0" encoding="UTF-8" standalone="no"?>
<svg
   xmlns:dc="http://purl.org/dc/elements/1.1/"
   xmlns:cc="http://creativecommons.org/ns#"
   xmlns:rdf="http://www.w3.org/1999/02/22-rdf-syntax-ns#"
   xmlns:svg="http://www.w3.org/2000/svg"
   xmlns="http://www.w3.org/2000/svg"
   xmlns:sodipodi="http://sodipodi.sourceforge.net/DTD/sodipodi-0.dtd"
   xmlns:inkscape="http://www.inkscape.org/namespaces/inkscape"
   height="1799"
   width="5000"
   id="svg2"
   version="1.1"
   inkscape:version="0.48.4 r9939"
   sodipodi:docname="easyfig">
  <metadata
     id="metadata122">
    <rdf:RDF>
      <cc:Work
         rdf:about="">
        <dc:format>image/svg+xml</dc:format>
        <dc:type
           rdf:resource="http://purl.org/dc/dcmitype/StillImage" />
        <dc:title>Easyfig</dc:title>
      </cc:Work>
    </rdf:RDF>
  </metadata>
  <defs
     id="defs120" />
  <sodipodi:namedview
     pagecolor="#ffffff"
     bordercolor="#666666"
     borderopacity="1"
     objecttolerance="10"
     gridtolerance="10"
     guidetolerance="10"
     inkscape:pageopacity="0"
     inkscape:pageshadow="2"
     inkscape:window-width="640"
     inkscape:window-height="480"
     id="namedview118"
     showgrid="false"
     inkscape:zoom="0.0584"
     inkscape:cx="2500"
     inkscape:cy="75.5"
     inkscape:window-x="55"
     inkscape:window-y="34"
     inkscape:window-maximized="0"
     inkscape:current-layer="svg2" />
  <title
     id="title4">Easyfig</title>
  <g
     style="fill-opacity:1.0; stroke:black; stroke-width:1;"
     id="g6">  <text
    style="font-size:64px;font-style:normal;font-weight:normal;line-height:125%;letter-spacing:0px;word-spacing:0px;fill:#000000;fill-opacity:1;stroke:none;font-family:Sans"
    x="-239"
    y="1435"
    sodipodi:linespacing="125%"
    transform="matrix(0,-1,1,0,0,0)"><tspan
      sodipodi:role="line"
      x="-239"
      y="1435">ORF2</tspan></text>
  <text
    style="font-size:64px;font-style:normal;font-weight:normal;line-height:125%;letter-spacing:0px;word-spacing:0px;fill:#000000;fill-opacity:1;stroke:none;font-family:Sans"
    x="-239"
    y="483"
    sodipodi:linespacing="125%"
    transform="matrix(0,-1,1,0,0,0)"><tspan
      sodipodi:role="line"
      x="-239"
      y="483">ORF1</tspan></text>
  <text
    style="font-size:64px;font-style:normal;font-weight:normal;line-height:125%;letter-spacing:0px;word-spacing:0px;fill:#000000;fill-opacity:1;stroke:none;font-family:Sans"
    x="-239"
    y="4518"
    sodipodi:linespacing="125%"
    transform="matrix(0,-1,1,0,0,0)"><tspan
      sodipodi:role="line"
      x="-239"
      y="4518">ORF6</tspan></text>
  <text
    style="font-size:64px;font-style:normal;font-weight:normal;line-height:125%;letter-spacing:0px;word-spacing:0px;fill:#000000;fill-opacity:1;stroke:none;font-family:Sans"
    x="-239"
    y="2655"
    sodipodi:linespacing="125%"
    transform="matrix(0,-1,1,0,0,0)"><tspan
      sodipodi:role="line"
      x="-239"
      y="2655">ORF3</tspan></text>
  <text
    style="font-size:64px;font-style:normal;font-weight:normal;line-height:125%;letter-spacing:0px;word-spacing:0px;fill:#000000;fill-opacity:1;stroke:none;font-family:Sans"
    x="-239"
    y="4072"
    sodipodi:linespacing="125%"
    transform="matrix(0,-1,1,0,0,0)"><tspan
      sodipodi:role="line"
      x="-239"
      y="4072">ORF5</tspan></text>
  <text
    style="font-size:64px;font-style:normal;font-weight:normal;line-height:125%;letter-spacing:0px;word-spacing:0px;fill:#000000;fill-opacity:1;stroke:none;font-family:Sans"
    x="-239"
    y="3047"
    sodipodi:linespacing="125%"
    transform="matrix(0,-1,1,0,0,0)"><tspan
      sodipodi:role="line"
      x="-239"
      y="3047">ORF4</tspan></text>
  <text
    style="font-size:64px;font-style:normal;font-weight:normal;line-height:125%;letter-spacing:0px;word-spacing:0px;fill:#000000;fill-opacity:1;stroke:none;font-family:Sans"
    text-anchor="end"
    x="-1059"
    y="2607"
    sodipodi:linespacing="125%"
    transform="matrix(0,-1,1,0,0,0)"><tspan
      sodipodi:role="line"
      x="-1059"
      y="2607">ORF3</tspan></text>
  <text
    style="font-size:64px;font-style:normal;font-weight:normal;line-height:125%;letter-spacing:0px;word-spacing:0px;fill:#000000;fill-opacity:1;stroke:none;font-family:Sans"
    text-anchor="end"
    x="-1059"
    y="1703"
    sodipodi:linespacing="125%"
    transform="matrix(0,-1,1,0,0,0)"><tspan
      sodipodi:role="line"
      x="-1059"
      y="1703">ORF2</tspan></text>
  <text
    style="font-size:64px;font-style:normal;font-weight:normal;line-height:125%;letter-spacing:0px;word-spacing:0px;fill:#000000;fill-opacity:1;stroke:none;font-family:Sans"
    text-anchor="end"
    x="-1059"
    y="1129"
    sodipodi:linespacing="125%"
    transform="matrix(0,-1,1,0,0,0)"><tspan
      sodipodi:role="line"
      x="-1059"
      y="1129">ORF1</tspan></text>
  <text
    style="font-size:64px;font-style:normal;font-weight:normal;line-height:125%;letter-spacing:0px;word-spacing:0px;fill:#000000;fill-opacity:1;stroke:none;font-family:Sans"
    text-anchor="end"
    x="-1059"
    y="3561"
    sodipodi:linespacing="125%"
    transform="matrix(0,-1,1,0,0,0)"><tspan
      sodipodi:role="line"
      x="-1059"
      y="3561">ORF4</tspan></text>
  <text
    style="font-size:64px;font-style:normal;font-weight:normal;line-height:125%;letter-spacing:0px;word-spacing:0px;fill:#000000;fill-opacity:1;stroke:none;font-family:Sans"
    x="4700"
    y="1778"
    sodipodi:linespacing="125%"><tspan
      sodipodi:role="line"
      x="4700"
      y="1778">36%</tspan></text>
  <text
    style="font-size:64px;font-style:normal;font-weight:normal;line-height:125%;letter-spacing:0px;word-spacing:0px;fill:#000000;fill-opacity:1;stroke:none;font-family:Sans"
    x="4700"
    y="1382"
    sodipodi:linespacing="125%"><tspan
      sodipodi:role="line"
      x="4700"
      y="1382">100%</tspan></text>
  <defs>
    <linearGradient id="MyGradient" x1="0%" y1="0%" x2="0%" y2="100%">
      <stop offset="0%" stop-color="#666" />
      <stop offset="100%" stop-color="#ccc" />
    </linearGradient>
  </defs>
  <rect fill="url(#MyGradient)" stroke-width="0"
        x="4600" y="1318" width="40" height="460"/>
  <defs>
    <linearGradient id="MyGradient2" x1="0%" y1="0%" x2="0%" y2="100%">
      <stop offset="0%" stop-color="#666" />
      <stop offset="100%" stop-color="#ccc" />
    </linearGradient>
</defs>
  <rect fill="url(#MyGradient2)" stroke-width="0"
        x="4640" y="1318" width="40" height="460" />
  <line x1="0" y1="324" x2="5000" y2="324"
        stroke-width="20" stroke="#000" />
  <polygon fill="#f80" stroke="#000" stroke-width="5"
           points="918,286 1814,286 1814,249 1889,324 1814,398 1814,360 918,360" />
  <polygon fill="#f80" stroke="#000" stroke-width="5"
           points="2,286 826,286 826,249 901,324 826,398 826,360 2,360" />
  <polygon fill="#f80" stroke="#000" stroke-width="5"
           points="4153,286 4746,286 4746,249 4821,324 4746,398 4746,360 4153,360" />
  <polygon fill="#f80" stroke="#000" stroke-width="5"
           points="2309,286 2861,286 2861,249 2936,324 2861,398 2861,360 2309,360" />
  <polygon fill="#f80" stroke="#000" stroke-width="5"
           points="4119,286 4036,286 4036,249 3961,324 4036,398 4036,360 4119,360" />
  <polygon fill="#f80" stroke="#000" stroke-width="5"
           points="2940,286 3015,286 3015,249 3090,324 3015,398 3015,360 2940,360" />
  <polygon fill="#666" stroke="#666" stroke-width="0"
           points="2718,398 225,398 1413,899 3907,899" />
  <line x1="2718" y1="398" x2="3907" y2="899"
        stroke-width="1" stroke="#000" />
  <line x1="225" y1="398" x2="1413" y2="899"
        stroke-width="1" stroke="#000" />
  <polygon fill="#666" stroke="#666" stroke-width="0"
           points="992,398 2865,398 4053,899 2180,899" />
  <line x1="992" y1="398" x2="2180" y2="899"
        stroke-width="1" stroke="#000" />
  <line x1="2865" y1="398" x2="4053" y2="899"
        stroke-width="1" stroke="#000" />
  <polygon fill="#666" stroke="#666" stroke-width="0"
           points="1810,398 31,398 1219,899 2998,899" />
  <line x1="1810" y1="398" x2="2998" y2="899"
        stroke-width="1" stroke="#000" />
  <line x1="31" y1="398" x2="1219" y2="899"
        stroke-width="1" stroke="#000" />
  <polygon fill="#666" stroke="#666" stroke-width="0"
           points="1766,398 2864,398 4053,899 2954,899" />
  <line x1="1766" y1="398" x2="2954" y2="899"
        stroke-width="1" stroke="#000" />
  <line x1="2864" y1="398" x2="4053" y2="899"
        stroke-width="1" stroke="#000" />
  <polygon fill="#666" stroke="#666" stroke-width="0"
           points="56,398 950,398 2139,899 1245,899" />
  <line x1="56" y1="398" x2="1245" y2="899"
        stroke-width="1" stroke="#000" />
  <line x1="950" y1="398" x2="2139" y2="899"
        stroke-width="1" stroke="#000" />
  <polygon fill="#666" stroke="#666" stroke-width="0"
           points="55,398 951,398 2139,899 1243,899" />
  <line x1="55" y1="398" x2="1243" y2="899"
        stroke-width="1" stroke="#000" />
  <line x1="951" y1="398" x2="2139" y2="899"
        stroke-width="1" stroke="#000" />
  <polygon fill="#666" stroke="#666" stroke-width="0"
           points="1130,398 1952,398 3140,899 2318,899" />
  <line x1="1130" y1="398" x2="2318" y2="899"
        stroke-width="1" stroke="#000" />
  <line x1="1952" y1="398" x2="3140" y2="899"
        stroke-width="1" stroke="#000" />
  <polygon fill="#666" stroke="#666" stroke-width="0"
           points="2602,398 1756,398 2944,899 3790,899" />
  <line x1="2602" y1="398" x2="3790" y2="899"
        stroke-width="1" stroke="#000" />
  <line x1="1756" y1="398" x2="2944" y2="899"
        stroke-width="1" stroke="#000" />
  <polygon fill="#666" stroke="#666" stroke-width="0"
           points="1005,398 332,398 1521,899 2193,899" />
  <line x1="1005" y1="398" x2="2193" y2="899"
        stroke-width="1" stroke="#000" />
  <line x1="332" y1="398" x2="1521" y2="899"
        stroke-width="1" stroke="#000" />
  <polygon fill="#777" stroke="#777" stroke-width="0"
           points="992,398 1701,398 2070,899 1361,899" />
  <line x1="992" y1="398" x2="1361" y2="899"
        stroke-width="1" stroke="#000" />
  <line x1="1701" y1="398" x2="2070" y2="899"
        stroke-width="1" stroke="#000" />
  <polygon fill="#777" stroke="#777" stroke-width="0"
           points="173,398 881,398 2889,899 2180,899" />
  <line x1="173" y1="398" x2="2180" y2="899"
        stroke-width="1" stroke="#000" />
  <line x1="881" y1="398" x2="2889" y2="899"
        stroke-width="1" stroke="#000" />
  <polygon fill="#666" stroke="#666" stroke-width="0"
           points="984,398 1537,398 2725,899 2172,899" />
  <line x1="984" y1="398" x2="2172" y2="899"
        stroke-width="1" stroke="#000" />
  <line x1="1537" y1="398" x2="2725" y2="899"
        stroke-width="1" stroke="#000" />
  <polygon fill="#666" stroke="#666" stroke-width="0"
           points="481,398 950,398 2138,899 1670,899" />
  <line x1="481" y1="398" x2="1670" y2="899"
        stroke-width="1" stroke="#000" />
  <line x1="950" y1="398" x2="2138" y2="899"
        stroke-width="1" stroke="#000" />
  <polygon fill="#777" stroke="#777" stroke-width="0"
           points="3620,398 4131,398 2574,899 2063,899" />
  <line x1="3620" y1="398" x2="2063" y2="899"
        stroke-width="1" stroke="#000" />
  <line x1="4131" y1="398" x2="2574" y2="899"
        stroke-width="1" stroke="#000" />
  <polygon fill="#888" stroke="#888" stroke-width="0"
           points="4133,398 3633,398 2076,899 2576,899" />
  <line x1="4133" y1="398" x2="2576" y2="899"
        stroke-width="1" stroke="#000" />
  <line x1="3633" y1="398" x2="2076" y2="899"
        stroke-width="1" stroke="#000" />
  <polygon fill="#999" stroke="#999" stroke-width="0"
           points="1546,398 1061,398 1430,899 1915,899" />
  <line x1="1546" y1="398" x2="1915" y2="899"
        stroke-width="1" stroke="#000" />
  <line x1="1061" y1="398" x2="1430" y2="899"
        stroke-width="1" stroke="#000" />
  <polygon fill="#666" stroke="#666" stroke-width="0"
           points="2137,398 1842,398 3030,899 3325,899" />
  <line x1="2137" y1="398" x2="3325" y2="899"
        stroke-width="1" stroke="#000" />
  <line x1="1842" y1="398" x2="3030" y2="899"
        stroke-width="1" stroke="#000" />
  <polygon fill="#666" stroke="#666" stroke-width="0"
           points="2866,398 2578,398 3766,899 4054,899" />
  <line x1="2866" y1="398" x2="4054" y2="899"
        stroke-width="1" stroke="#000" />
  <line x1="2578" y1="398" x2="3766" y2="899"
        stroke-width="1" stroke="#000" />
  <polygon fill="#666" stroke="#666" stroke-width="0"
           points="2277,398 2527,398 3715,899 3466,899" />
  <line x1="2277" y1="398" x2="3466" y2="899"
        stroke-width="1" stroke="#000" />
  <line x1="2527" y1="398" x2="3715" y2="899"
        stroke-width="1" stroke="#000" />
  <polygon fill="#666" stroke="#666" stroke-width="0"
           points="1989,398 2233,398 3422,899 3177,899" />
  <line x1="1989" y1="398" x2="3177" y2="899"
        stroke-width="1" stroke="#000" />
  <line x1="2233" y1="398" x2="3422" y2="899"
        stroke-width="1" stroke="#000" />
  <polygon fill="#666" stroke="#666" stroke-width="0"
           points="1546,398 1309,398 2497,899 2734,899" />
  <line x1="1546" y1="398" x2="2734" y2="899"
        stroke-width="1" stroke="#000" />
  <line x1="1309" y1="398" x2="2497" y2="899"
        stroke-width="1" stroke="#000" />
  <polygon fill="#666" stroke="#666" stroke-width="0"
           points="2864,398 2627,398 3815,899 4053,899" />
  <line x1="2864" y1="398" x2="4053" y2="899"
        stroke-width="1" stroke="#000" />
  <line x1="2627" y1="398" x2="3815" y2="899"
        stroke-width="1" stroke="#000" />
  <polygon fill="#666" stroke="#666" stroke-width="0"
           points="1272,398 1059,398 2247,899 2460,899" />
  <line x1="1272" y1="398" x2="2460" y2="899"
        stroke-width="1" stroke="#000" />
  <line x1="1059" y1="398" x2="2247" y2="899"
        stroke-width="1" stroke="#000" />
  <polygon fill="#666" stroke="#666" stroke-width="0"
           points="250,398 53,398 1241,899 1438,899" />
  <line x1="250" y1="398" x2="1438" y2="899"
        stroke-width="1" stroke="#000" />
  <line x1="53" y1="398" x2="1241" y2="899"
        stroke-width="1" stroke="#000" />
  <polygon fill="#666" stroke="#666" stroke-width="0"
           points="2568,398 2837,398 4025,899 3757,899" />
  <line x1="2568" y1="398" x2="3757" y2="899"
        stroke-width="1" stroke="#000" />
  <line x1="2837" y1="398" x2="4025" y2="899"
        stroke-width="1" stroke="#000" />
  <polygon fill="#666" stroke="#666" stroke-width="0"
           points="51,398 283,398 1472,899 1239,899" />
  <line x1="51" y1="398" x2="1239" y2="899"
        stroke-width="1" stroke="#000" />
  <line x1="283" y1="398" x2="1472" y2="899"
        stroke-width="1" stroke="#000" />
  <polygon fill="#aaa" stroke="#aaa" stroke-width="0"
           points="3252,398 3633,398 3531,899 3149,899" />
  <line x1="3252" y1="398" x2="3149" y2="899"
        stroke-width="1" stroke="#000" />
  <line x1="3633" y1="398" x2="3531" y2="899"
        stroke-width="1" stroke="#000" />
  <polygon fill="#666" stroke="#666" stroke-width="0"
           points="2520,398 2369,398 3557,899 3708,899" />
  <line x1="2520" y1="398" x2="3708" y2="899"
        stroke-width="1" stroke="#000" />
  <line x1="2369" y1="398" x2="3557" y2="899"
        stroke-width="1" stroke="#000" />
  <polygon fill="#666" stroke="#666" stroke-width="0"
           points="2330,398 2169,398 3357,899 3518,899" />
  <line x1="2330" y1="398" x2="3518" y2="899"
        stroke-width="1" stroke="#000" />
  <line x1="2169" y1="398" x2="3357" y2="899"
        stroke-width="1" stroke="#000" />
  <polygon fill="#666" stroke="#666" stroke-width="0"
           points="1578,398 1705,398 2893,899 2766,899" />
  <line x1="1578" y1="398" x2="2766" y2="899"
        stroke-width="1" stroke="#000" />
  <line x1="1705" y1="398" x2="2893" y2="899"
        stroke-width="1" stroke="#000" />
  <polygon fill="#666" stroke="#666" stroke-width="0"
           points="1710,398 1578,398 2766,899 2898,899" />
  <line x1="1710" y1="398" x2="2898" y2="899"
        stroke-width="1" stroke="#000" />
  <line x1="1578" y1="398" x2="2766" y2="899"
        stroke-width="1" stroke="#000" />
  <polygon fill="#666" stroke="#666" stroke-width="0"
           points="176,398 56,398 1245,899 1364,899" />
  <line x1="176" y1="398" x2="1364" y2="899"
        stroke-width="1" stroke="#000" />
  <line x1="56" y1="398" x2="1245" y2="899"
        stroke-width="1" stroke="#000" />
  <polygon fill="#666" stroke="#666" stroke-width="0"
           points="335,398 454,398 1642,899 1523,899" />
  <line x1="335" y1="398" x2="1523" y2="899"
        stroke-width="1" stroke="#000" />
  <line x1="454" y1="398" x2="1642" y2="899"
        stroke-width="1" stroke="#000" />
  <polygon fill="#777" stroke="#777" stroke-width="0"
           points="1700,398 1578,398 1947,899 2069,899" />
  <line x1="1700" y1="398" x2="2069" y2="899"
        stroke-width="1" stroke="#000" />
  <line x1="1578" y1="398" x2="1947" y2="899"
        stroke-width="1" stroke="#000" />
  <polygon fill="#666" stroke="#666" stroke-width="0"
           points="991,398 1074,398 2262,899 2179,899" />
  <line x1="991" y1="398" x2="2179" y2="899"
        stroke-width="1" stroke="#000" />
  <line x1="1074" y1="398" x2="2262" y2="899"
        stroke-width="1" stroke="#000" />
  <polygon fill="#999" stroke="#999" stroke-width="0"
           points="1005,398 883,398 1252,899 1374,899" />
  <line x1="1005" y1="398" x2="1374" y2="899"
        stroke-width="1" stroke="#000" />
  <line x1="883" y1="398" x2="1252" y2="899"
        stroke-width="1" stroke="#000" />
  <polygon fill="#666" stroke="#666" stroke-width="0"
           points="2839,398 2765,398 3953,899 4027,899" />
  <line x1="2839" y1="398" x2="4027" y2="899"
        stroke-width="1" stroke="#000" />
  <line x1="2765" y1="398" x2="3953" y2="899"
        stroke-width="1" stroke="#000" />
  <polygon fill="#999" stroke="#999" stroke-width="0"
           points="69,398 136,398 2144,899 2077,899" />
  <line x1="69" y1="398" x2="2077" y2="899"
        stroke-width="1" stroke="#000" />
  <line x1="136" y1="398" x2="2144" y2="899"
        stroke-width="1" stroke="#000" />
  <polygon fill="#999" stroke="#999" stroke-width="0"
           points="884,398 950,398 1319,899 1253,899" />
  <line x1="884" y1="398" x2="1253" y2="899"
        stroke-width="1" stroke="#000" />
  <line x1="950" y1="398" x2="1319" y2="899"
        stroke-width="1" stroke="#000" />
  <polygon fill="#bbb" stroke="#bbb" stroke-width="0"
           points="4875,398 4838,398 2717,899 2754,899" />
  <line x1="4875" y1="398" x2="2754" y2="899"
        stroke-width="1" stroke="#000" />
  <line x1="4838" y1="398" x2="2717" y2="899"
        stroke-width="1" stroke="#000" />
  <polygon fill="#888" stroke="#888" stroke-width="0"
           points="894,398 875,398 1243,899 1262,899" />
  <line x1="894" y1="398" x2="1262" y2="899"
        stroke-width="1" stroke="#000" />
  <line x1="875" y1="398" x2="1243" y2="899"
        stroke-width="1" stroke="#000" />
  <polygon fill="#aaa" stroke="#aaa" stroke-width="0"
           points="3152,398 3136,398 2063,899 2079,899" />
  <line x1="3152" y1="398" x2="2079" y2="899"
        stroke-width="1" stroke="#000" />
  <line x1="3136" y1="398" x2="2063" y2="899"
        stroke-width="1" stroke="#000" />
  <polygon fill="#bbb" stroke="#bbb" stroke-width="0"
           points="4431,398 4471,398 3761,899 3721,899" />
  <line x1="4431" y1="398" x2="3721" y2="899"
        stroke-width="1" stroke="#000" />
  <line x1="4471" y1="398" x2="3761" y2="899"
        stroke-width="1" stroke="#000" />
  <polygon fill="#666" stroke="#666" stroke-width="0"
           points="875,398 889,398 3063,899 3050,899" />
  <line x1="875" y1="398" x2="3050" y2="899"
        stroke-width="1" stroke="#000" />
  <line x1="889" y1="398" x2="3063" y2="899"
        stroke-width="1" stroke="#000" />
  <polygon fill="#999" stroke="#999" stroke-width="0"
           points="4320,398 4346,398 3341,899 3315,899" />
  <line x1="4320" y1="398" x2="3315" y2="899"
        stroke-width="1" stroke="#000" />
  <line x1="4346" y1="398" x2="3341" y2="899"
        stroke-width="1" stroke="#000" />
  <polygon fill="#888" stroke="#888" stroke-width="0"
           points="881,398 225,398 2233,899 2888,899" />
  <line x1="881" y1="398" x2="2888" y2="899"
        stroke-width="1" stroke="#000" />
  <line x1="225" y1="398" x2="2233" y2="899"
        stroke-width="1" stroke="#000" />
  <polygon fill="#999" stroke="#999" stroke-width="0"
           points="176,398 68,398 2076,899 2184,899" />
  <line x1="176" y1="398" x2="2184" y2="899"
        stroke-width="1" stroke="#000" />
  <line x1="68" y1="398" x2="2076" y2="899"
        stroke-width="1" stroke="#000" />
  <polygon fill="#bbb" stroke="#bbb" stroke-width="0"
           points="3632,398 3371,398 3268,899 3530,899" />
  <line x1="3632" y1="398" x2="3530" y2="899"
        stroke-width="1" stroke="#000" />
  <line x1="3371" y1="398" x2="3268" y2="899"
        stroke-width="1" stroke="#000" />
  <polygon fill="#999" stroke="#999" stroke-width="0"
           points="3325,398 3287,398 3184,899 3222,899" />
  <line x1="3325" y1="398" x2="3222" y2="899"
        stroke-width="1" stroke="#000" />
  <line x1="3287" y1="398" x2="3184" y2="899"
        stroke-width="1" stroke="#000" />
  <polygon fill="#666" stroke="#666" stroke-width="0"
           points="889,398 875,398 3050,899 3063,899" />
  <line x1="889" y1="398" x2="3063" y2="899"
        stroke-width="1" stroke="#000" />
  <line x1="875" y1="398" x2="3050" y2="899"
        stroke-width="1" stroke="#000" />
  <polygon fill="#888" stroke="#888" stroke-width="0"
           points="4621,398 4603,398 3530,899 3548,899" />
  <line x1="4621" y1="398" x2="3548" y2="899"
        stroke-width="1" stroke="#000" />
  <line x1="4603" y1="398" x2="3530" y2="899"
        stroke-width="1" stroke="#000" />
  <polygon fill="#777" stroke="#777" stroke-width="0"
           points="3627,398 4131,398 1755,899 1250,899" />
  <line x1="3627" y1="398" x2="1250" y2="899"
        stroke-width="1" stroke="#000" />
  <line x1="4131" y1="398" x2="1755" y2="899"
        stroke-width="1" stroke="#000" />
  <polygon fill="#bbb" stroke="#bbb" stroke-width="0"
           points="1689,398 886,398 1255,899 2058,899" />
  <line x1="1689" y1="398" x2="2058" y2="899"
        stroke-width="1" stroke="#000" />
  <line x1="886" y1="398" x2="1255" y2="899"
        stroke-width="1" stroke="#000" />
  <polygon fill="#bbb" stroke="#bbb" stroke-width="0"
           points="4126,398 3793,398 2236,899 2569,899" />
  <line x1="4126" y1="398" x2="2569" y2="899"
        stroke-width="1" stroke="#000" />
  <line x1="3793" y1="398" x2="2236" y2="899"
        stroke-width="1" stroke="#000" />
  <polygon fill="#aaa" stroke="#aaa" stroke-width="0"
           points="3689,398 3634,398 2077,899 2131,899" />
  <line x1="3689" y1="398" x2="2131" y2="899"
        stroke-width="1" stroke="#000" />
  <line x1="3634" y1="398" x2="2077" y2="899"
        stroke-width="1" stroke="#000" />
  <polygon fill="#777" stroke="#777" stroke-width="0"
           points="1875,398 1861,398 2063,899 2077,899" />
  <line x1="1875" y1="398" x2="2077" y2="899"
        stroke-width="1" stroke="#000" />
  <line x1="1861" y1="398" x2="2063" y2="899"
        stroke-width="1" stroke="#000" />
  <polygon fill="#bbb" stroke="#bbb" stroke-width="0"
           points="3636,398 4126,398 2568,899 2079,899" />
  <line x1="3636" y1="398" x2="2079" y2="899"
        stroke-width="1" stroke="#000" />
  <line x1="4126" y1="398" x2="2568" y2="899"
        stroke-width="1" stroke="#000" />
  <polygon fill="#bbb" stroke="#bbb" stroke-width="0"
           points="1076,398 1520,398 1889,899 1444,899" />
  <line x1="1076" y1="398" x2="1444" y2="899"
        stroke-width="1" stroke="#000" />
  <line x1="1520" y1="398" x2="1889" y2="899"
        stroke-width="1" stroke="#000" />
  <polygon fill="#bbb" stroke="#bbb" stroke-width="0"
           points="1583,398 1690,398 2059,899 1952,899" />
  <line x1="1583" y1="398" x2="1952" y2="899"
        stroke-width="1" stroke="#000" />
  <line x1="1690" y1="398" x2="2059" y2="899"
        stroke-width="1" stroke="#000" />
  <polygon fill="#aaa" stroke="#aaa" stroke-width="0"
           points="885,398 947,398 1316,899 1254,899" />
  <line x1="885" y1="398" x2="1254" y2="899"
        stroke-width="1" stroke="#000" />
  <line x1="947" y1="398" x2="1316" y2="899"
        stroke-width="1" stroke="#000" />
  <polygon fill="#ccc" stroke="#ccc" stroke-width="0"
           points="991,398 1059,398 1428,899 1359,899" />
  <line x1="991" y1="398" x2="1359" y2="899"
        stroke-width="1" stroke="#000" />
  <line x1="1059" y1="398" x2="1428" y2="899"
        stroke-width="1" stroke="#000" />
  <polygon fill="#999" stroke="#999" stroke-width="0"
           points="4454,398 4473,398 2654,899 2636,899" />
  <line x1="4454" y1="398" x2="2636" y2="899"
        stroke-width="1" stroke="#000" />
  <line x1="4473" y1="398" x2="2654" y2="899"
        stroke-width="1" stroke="#000" />
  <polygon fill="#888" stroke="#888" stroke-width="0"
           points="4133,398 3633,398 1257,899 1756,899" />
  <line x1="4133" y1="398" x2="1756" y2="899"
        stroke-width="1" stroke="#000" />
  <line x1="3633" y1="398" x2="1257" y2="899"
        stroke-width="1" stroke="#000" />
  <polygon fill="#bbb" stroke="#bbb" stroke-width="0"
           points="624,398 67,398 2075,899 2632,899" />
  <line x1="624" y1="398" x2="2632" y2="899"
        stroke-width="1" stroke="#000" />
  <line x1="67" y1="398" x2="2075" y2="899"
        stroke-width="1" stroke="#000" />
  <polygon fill="#ccc" stroke="#ccc" stroke-width="0"
           points="908,398 659,398 2666,899 2916,899" />
  <line x1="908" y1="398" x2="2916" y2="899"
        stroke-width="1" stroke="#000" />
  <line x1="659" y1="398" x2="2666" y2="899"
        stroke-width="1" stroke="#000" />
  <polygon fill="#ccc" stroke="#ccc" stroke-width="0"
           points="1690,398 1029,398 1398,899 2059,899" />
  <line x1="1690" y1="398" x2="2059" y2="899"
        stroke-width="1" stroke="#000" />
  <line x1="1029" y1="398" x2="1398" y2="899"
        stroke-width="1" stroke="#000" />
  <polygon fill="#bbb" stroke="#bbb" stroke-width="0"
           points="4130,398 3635,398 2078,899 2572,899" />
  <line x1="4130" y1="398" x2="2572" y2="899"
        stroke-width="1" stroke="#000" />
  <line x1="3635" y1="398" x2="2078" y2="899"
        stroke-width="1" stroke="#000" />
  <polygon fill="#aaa" stroke="#aaa" stroke-width="0"
           points="997,398 887,398 1256,899 1366,899" />
  <line x1="997" y1="398" x2="1366" y2="899"
        stroke-width="1" stroke="#000" />
  <line x1="887" y1="398" x2="1256" y2="899"
        stroke-width="1" stroke="#000" />
  <polygon fill="#bbb" stroke="#bbb" stroke-width="0"
           points="66,398 871,398 2879,899 2074,899" />
  <line x1="66" y1="398" x2="2074" y2="899"
        stroke-width="1" stroke="#000" />
  <line x1="871" y1="398" x2="2879" y2="899"
        stroke-width="1" stroke="#000" />
  <polygon fill="#ccc" stroke="#ccc" stroke-width="0"
           points="1142,398 1690,398 2059,899 1511,899" />
  <line x1="1142" y1="398" x2="1511" y2="899"
        stroke-width="1" stroke="#000" />
  <line x1="1690" y1="398" x2="2059" y2="899"
        stroke-width="1" stroke="#000" />
  <polygon fill="#bbb" stroke="#bbb" stroke-width="0"
           points="3635,398 3826,398 2269,899 2078,899" />
  <line x1="3635" y1="398" x2="2078" y2="899"
        stroke-width="1" stroke="#000" />
  <line x1="3826" y1="398" x2="2269" y2="899"
        stroke-width="1" stroke="#000" />
  <polygon fill="#bbb" stroke="#bbb" stroke-width="0"
           points="4005,398 4125,398 2568,899 2448,899" />
  <line x1="4005" y1="398" x2="2448" y2="899"
        stroke-width="1" stroke="#000" />
  <line x1="4125" y1="398" x2="2568" y2="899"
        stroke-width="1" stroke="#000" />
  <polygon fill="#aaa" stroke="#aaa" stroke-width="0"
           points="887,398 949,398 1318,899 1256,899" />
  <line x1="887" y1="398" x2="1256" y2="899"
        stroke-width="1" stroke="#000" />
  <line x1="949" y1="398" x2="1318" y2="899"
        stroke-width="1" stroke="#000" />
  <polygon fill="#ccc" stroke="#ccc" stroke-width="0"
           points="3863,398 3961,398 2404,899 2306,899" />
  <line x1="3863" y1="398" x2="2306" y2="899"
        stroke-width="1" stroke="#000" />
  <line x1="3961" y1="398" x2="2404" y2="899"
        stroke-width="1" stroke="#000" />
  <polygon fill="#bbb" stroke="#bbb" stroke-width="0"
           points="3636,398 4142,398 1766,899 1259,899" />
  <line x1="3636" y1="398" x2="1259" y2="899"
        stroke-width="1" stroke="#000" />
  <line x1="4142" y1="398" x2="1766" y2="899"
        stroke-width="1" stroke="#000" />
  <polygon fill="#ccc" stroke="#ccc" stroke-width="0"
           points="481,398 870,398 2878,899 2489,899" />
  <line x1="481" y1="398" x2="2489" y2="899"
        stroke-width="1" stroke="#000" />
  <line x1="870" y1="398" x2="2878" y2="899"
        stroke-width="1" stroke="#000" />
  <polygon fill="#bbb" stroke="#bbb" stroke-width="0"
           points="68,398 240,398 2248,899 2075,899" />
  <line x1="68" y1="398" x2="2075" y2="899"
        stroke-width="1" stroke="#000" />
  <line x1="240" y1="398" x2="2248" y2="899"
        stroke-width="1" stroke="#000" />
  <polygon fill="#bbb" stroke="#bbb" stroke-width="0"
           points="2894,398 2927,398 3929,899 3896,899" />
  <line x1="2894" y1="398" x2="3896" y2="899"
        stroke-width="1" stroke="#000" />
  <line x1="2927" y1="398" x2="3929" y2="899"
        stroke-width="1" stroke="#000" />
  <polygon fill="#ccc" stroke="#ccc" stroke-width="0"
           points="870,398 351,398 2359,899 2878,899" />
  <line x1="870" y1="398" x2="2878" y2="899"
        stroke-width="1" stroke="#000" />
  <line x1="351" y1="398" x2="2359" y2="899"
        stroke-width="1" stroke="#000" />
  <polygon fill="#aaa" stroke="#aaa" stroke-width="0"
           points="177,398 68,398 2075,899 2185,899" />
  <line x1="177" y1="398" x2="2185" y2="899"
        stroke-width="1" stroke="#000" />
  <line x1="68" y1="398" x2="2075" y2="899"
        stroke-width="1" stroke="#000" />
  <polygon fill="#bbb" stroke="#bbb" stroke-width="0"
           points="3551,398 3502,398 3399,899 3449,899" />
  <line x1="3551" y1="398" x2="3449" y2="899"
        stroke-width="1" stroke="#000" />
  <line x1="3502" y1="398" x2="3399" y2="899"
        stroke-width="1" stroke="#000" />
  <polygon fill="#777" stroke="#777" stroke-width="0"
           points="3150,398 3136,398 3050,899 3063,899" />
  <line x1="3150" y1="398" x2="3063" y2="899"
        stroke-width="1" stroke="#000" />
  <line x1="3136" y1="398" x2="3050" y2="899"
        stroke-width="1" stroke="#000" />
  <polygon fill="#bbb" stroke="#bbb" stroke-width="0"
           points="4126,398 3788,398 1411,899 1750,899" />
  <line x1="4126" y1="398" x2="1750" y2="899"
        stroke-width="1" stroke="#000" />
  <line x1="3788" y1="398" x2="1411" y2="899"
        stroke-width="1" stroke="#000" />
  <polygon fill="#bbb" stroke="#bbb" stroke-width="0"
           points="4125,398 3895,398 1518,899 1748,899" />
  <line x1="4125" y1="398" x2="1748" y2="899"
        stroke-width="1" stroke="#000" />
  <line x1="3895" y1="398" x2="1518" y2="899"
        stroke-width="1" stroke="#000" />
  <polygon fill="#aaa" stroke="#aaa" stroke-width="0"
           points="3836,398 3635,398 1258,899 1460,899" />
  <line x1="3836" y1="398" x2="1460" y2="899"
        stroke-width="1" stroke="#000" />
  <line x1="3635" y1="398" x2="1258" y2="899"
        stroke-width="1" stroke="#000" />
  <polygon fill="#aaa" stroke="#aaa" stroke-width="0"
           points="3623,398 3826,398 1450,899 1246,899" />
  <line x1="3623" y1="398" x2="1246" y2="899"
        stroke-width="1" stroke="#000" />
  <line x1="3826" y1="398" x2="1450" y2="899"
        stroke-width="1" stroke="#000" />
  <polygon fill="#999" stroke="#999" stroke-width="0"
           points="4022,398 4125,398 1748,899 1646,899" />
  <line x1="4022" y1="398" x2="1646" y2="899"
        stroke-width="1" stroke="#000" />
  <line x1="4125" y1="398" x2="1748" y2="899"
        stroke-width="1" stroke="#000" />
  <polygon fill="#aaa" stroke="#aaa" stroke-width="0"
           points="3823,398 3856,398 1573,899 1541,899" />
  <line x1="3823" y1="398" x2="1541" y2="899"
        stroke-width="1" stroke="#000" />
  <line x1="3856" y1="398" x2="1573" y2="899"
        stroke-width="1" stroke="#000" />
  <polygon fill="#777" stroke="#777" stroke-width="0"
           points="3131,398 3147,398 1254,899 1238,899" />
  <line x1="3131" y1="398" x2="1238" y2="899"
        stroke-width="1" stroke="#000" />
  <line x1="3147" y1="398" x2="1254" y2="899"
        stroke-width="1" stroke="#000" />
  <line x1="945" y1="974" x2="4054" y2="974"
        stroke-width="20" stroke="#000" />
  <polygon fill="#f80" stroke="#000" stroke-width="5"
           points="2106,936 3002,936 3002,899 3077,974 3002,1048 3002,1010 2106,1010" />
  <polygon fill="#f80" stroke="#000" stroke-width="5"
           points="1286,936 2014,936 2014,899 2089,974 2014,1048 2014,1010 1286,1010" />
  <polygon fill="#f80" stroke="#000" stroke-width="5"
           points="946,936 1207,936 1207,899 1282,974 1207,1048 1207,1010 946,1010" />
  <polygon fill="#f80" stroke="#000" stroke-width="5"
           points="3641,936 3525,936 3525,899 3450,974 3525,1048 3525,1010 3641,1010" />
 </g>
</svg>